# xmcd CD database file
#
# Track frame offsets:
#	150
#	28577
#	50555
#	91517
#	118510
#	143905
#	177725
#	200355
#	236747
#	268770
#
# Disc length: 3925 seconds
#
# Revision: 0
# Processed by: cddbd v1.5.1PL0 Copyright (c) Steve Scherf et al.
# Submitted via: CDex 1.50
#
DISCID=8b0f530a
DTITLE=Threeo - Threeo
DYEAR=1992
DGENRE=Jazz
TTITLE0=Rick's tricks
TTITLE1=Oh its nice
TTITLE2=Wherever i go
TTITLE3=Deep inside
TTITLE4=Good idea
TTITLE5=In a certain hood
TTITLE6=Southern lights
TTITLE7=Homeless
TTITLE8=Danger
TTITLE9=Small blues
EXTD=YEAR: 1992
EXTT0=
EXTT1=
EXTT2=
EXTT3=
EXTT4=
EXTT5=
EXTT6=
EXTT7=
EXTT8=
EXTT9=
PLAYORDER=
